<?xml version="1.0" standalone="no"?>
<!DOCTYPE svg PUBLIC "-//W3C//DTD SVG 20010904//EN"
 "http://www.w3.org/TR/2001/REC-SVG-20010904/DTD/svg10.dtd">
<svg version="1.0" xmlns="http://www.w3.org/2000/svg"
 width="1200.000000pt" height="675.000000pt" viewBox="0 0 1200.000000 675.000000"
 preserveAspectRatio="xMidYMid meet">
<metadata>
Created by potrace 1.16, written by Peter Selinger 2001-2019
</metadata>
<g transform="translate(0.000000,675.000000) scale(0.100000,-0.100000)"
fill="#000000" stroke="none">
<path d="M5067 5233 c485 -2 1281 -2 1770 0 488 1 92 2 -882 2 -973 0 -1373
-1 -888 -2z"/>
<path d="M4162 3448 l3 -1773 5 1770 5 1770 3 -1767 2 -1768 1763 -2 1762 -3
-1760 -5 -1760 -5 1766 -3 c1362 -1 1768 1 1777 10 9 9 11 415 10 1778 l-3
1765 -5 -1770 -5 -1770 -3 1773 -2 1772 -1780 0 -1780 0 2 -1772z m2908 132
c34 -11 78 -31 98 -44 54 -35 172 -163 172 -187 0 -9 -237 -169 -250 -169 -4
0 -23 20 -41 45 -19 25 -52 54 -75 65 -48 24 -142 27 -183 6 -59 -31 -83 -106
-55 -174 20 -51 63 -83 184 -137 47 -21 126 -58 175 -83 239 -118 330 -236
342 -442 12 -192 -68 -336 -234 -422 -95 -50 -178 -68 -309 -68 -211 1 -366
59 -489 184 -38 39 -80 90 -93 113 l-22 41 127 74 c71 40 133 73 139 73 6 0
29 -22 51 -50 74 -94 154 -134 268 -135 91 0 139 14 182 54 30 27 36 41 41 86
9 102 -29 136 -277 249 -242 110 -326 177 -388 306 -61 129 -55 306 14 424 57
98 165 174 291 206 79 20 250 12 332 -15z m-865 -140 l0 -145 -227 -3 -228 -2
0 -650 0 -650 -167 2 -168 3 0 645 0 645 -227 3 -228 2 0 150 0 150 623 -2
622 -3 0 -145z"/>
</g>
</svg>
